<?xml version="1.0" standalone="no"?><!DOCTYPE svg PUBLIC "-//W3C//DTD SVG 1.1//EN" "http://www.w3.org/Graphics/SVG/1.1/DTD/svg11.dtd"><svg t="1686387123737" class="icon" viewBox="0 0 1024 1024" version="1.1" xmlns="http://www.w3.org/2000/svg" p-id="2556" xmlns:xlink="http://www.w3.org/1999/xlink" width="200" height="200"><path d="M333.283019 556.27673c25.761006-80.503145 93.383648-123.974843 173.886792-123.974843s148.125786 43.471698 173.886793 123.974843h322.012578C974.08805 298.666667 763.169811 116.72956 507.169811 116.72956S40.251572 298.666667 11.27044 556.27673h322.012579z" fill="#D10D0D" p-id="2557"></path><path d="M333.283019 556.27673c25.761006-80.503145 93.383648-123.974843 173.886792-123.974843s148.125786 43.471698 173.886793 123.974843h322.012578C974.08805 298.666667 763.169811 163.421384 507.169811 163.421384S40.251572 298.666667 11.27044 556.27673h322.012579z" fill="#A80404" p-id="2558"></path><path d="M523.27044 382.389937c0 6.440252-6.440252 12.880503-12.880503 12.880503h-6.440251c-6.440252 0-12.880503-6.440252-12.880504-12.880503V134.440252c0-6.440252 6.440252-12.880503 12.880504-12.880504h6.440251c6.440252 0 12.880503 6.440252 12.880503 12.880504V382.389937z" fill="#D10D0D" p-id="2559"></path><path d="M523.27044 382.389937c0 6.440252-6.440252 12.880503-12.880503 12.880503h-6.440251c-6.440252 0-12.880503-6.440252-12.880504-12.880503V134.440252c0-6.440252 6.440252-12.880503 12.880504-12.880504h6.440251c6.440252 0 12.880503 6.440252 12.880503 12.880504V382.389937z" fill="#D10D0D" p-id="2560"></path><path d="M378.36478 411.371069c4.830189 4.830189 3.220126 12.880503-1.610063 17.710692-4.830189 4.830189-12.880503 3.220126-17.710692-1.610063l-152.955975-193.207547c-4.830189-4.830189-3.220126-12.880503 1.610063-17.710692 4.830189-4.830189 12.880503-3.220126 17.710692 1.610063l152.955975 193.207547zM635.974843 411.371069c-4.830189 4.830189-3.220126 12.880503 1.610063 17.710692 4.830189 4.830189 12.880503 3.220126 17.710691-1.610063l152.955975-193.207547c4.830189-4.830189 3.220126-12.880503-1.610063-17.710692-4.830189-4.830189-12.880503-3.220126-17.710691 1.610063l-152.955975 193.207547z" fill="#D10D0D" p-id="2561"></path><path d="M347.773585 564.327044c0 12.880503-9.660377 24.150943-22.540881 24.150943H22.540881c-12.880503 0-22.540881-11.27044-22.540881-24.150943s9.660377-24.150943 22.540881-24.150943h302.691823c12.880503 0 22.540881 11.27044 22.540881 24.150943zM1022.389937 565.937107c0 12.880503-9.660377 22.540881-22.54088 22.54088H690.716981c-12.880503 0-22.540881-9.660377-22.54088-22.54088v-4.830189c0-12.880503 9.660377-22.540881 22.54088-22.54088h310.742138c12.880503 0 22.540881 9.660377 22.540881 22.54088v4.830189h-1.610063z" fill="#5E0404" p-id="2562"></path><path d="M507.169811 588.477987m-45.081761 0a45.081761 45.081761 0 1 0 90.163522 0 45.081761 45.081761 0 1 0-90.163522 0Z" fill="#A80404" p-id="2563"></path><path d="M552.251572 588.477987c0 25.761006-20.930818 45.081761-45.081761 45.081761s-45.081761-20.930818-45.081761-45.081761" fill="#8C0303" p-id="2564"></path><path d="M99.823899 414.591195s25.761006 69.232704 78.893082 38.641509 78.893082-19.320755 90.163522 0 4.830189 51.522013-32.201258 45.081761c-37.031447-6.440252-27.371069-40.251572 8.050315-38.641509 0 0-27.371069-9.660377-35.421384 14.490566s43.471698 46.691824 67.622642 11.27044c24.150943-33.811321-35.421384-86.943396-93.383648-69.232704-57.962264 17.710692-82.113208-11.27044-78.893082-30.591195 3.220126-19.320755 51.522013-11.27044 37.031447 14.490566 0 0 24.150943-37.031447-14.490566-38.64151-43.471698-1.610063-37.031447 17.710692-33.811321 28.981133 1.610063 14.490566 6.440252 24.150943 6.440251 24.150943z" fill="#FFA412" p-id="2565"></path><path d="M302.691824 475.773585m-3.220126 0a3.220126 3.220126 0 1 0 6.440252 0 3.220126 3.220126 0 1 0-6.440252 0Z" fill="#FFA412" p-id="2566"></path><path d="M328.45283 478.993711m-6.440251 0a6.440252 6.440252 0 1 0 12.880503 0 6.440252 6.440252 0 1 0-12.880503 0Z" fill="#FFA412" p-id="2567"></path><path d="M350.993711 477.383648m-1.610063 0a1.610063 1.610063 0 1 0 3.220126 0 1.610063 1.610063 0 1 0-3.220126 0Z" fill="#FFA412" p-id="2568"></path><path d="M370.314465 472.553459v1.610063h-3.220125V470.943396c1.610063 1.610063 3.220126 1.610063 3.220125 1.610063z" fill="#FFA412" p-id="2569"></path><path d="M247.949686 474.163522m-4.830189 0a4.830189 4.830189 0 1 0 9.660377 0 4.830189 4.830189 0 1 0-9.660377 0Z" fill="#FFA412" p-id="2570"></path><path d="M132.025157 392.050314c3.220126 1.610063 3.220126 6.440252 0 9.660378-1.610063 3.220126-6.440252 3.220126-9.660377 0-1.610063-1.610063-1.610063-6.440252 0-8.050315 3.220126-3.220126 6.440252-3.220126 9.660377-1.610063zM157.786164 404.930818s8.050314-11.27044-3.220126-30.591195c0 0 22.540881 9.660377 14.490566 20.930817-6.440252 9.660377-11.27044 9.660377-11.27044 9.660378zM172.27673 406.540881l9.660377-14.490567s4.830189 12.880503 0 12.880504c-3.220126 0-9.660377 1.610063-9.660377 1.610063zM223.798742 321.207547c1.610063 1.610063 1.610063 3.220126 0 3.220126l-30.591195 32.201258c-1.610063 1.610063-3.220126 1.610063-3.220126 0-1.610063-1.610063-1.610063-3.220126 0-3.220126l30.591195-32.201258s1.610063-1.610063 3.220126 0zM241.509434 335.698113c1.610063 1.610063 1.610063 3.220126 0 3.220126l-30.591195 32.201258c-1.610063 1.610063-3.220126 1.610063-3.220126 0-1.610063-1.610063-1.610063-3.220126 0-3.220126l30.591195-32.201258c1.610063-1.610063 3.220126-1.610063 3.220126 0zM260.830189 350.188679c1.610063 1.610063 1.610063 3.220126 0 3.220126l-30.591195 32.201258c-1.610063 1.610063-3.220126 1.610063-3.220126 0-1.610063-1.610063-1.610063-3.220126 0-3.220126l30.591195-32.201258c1.610063-1.610063 3.220126-1.610063 3.220126 0zM280.150943 364.679245c1.610063 1.610063 1.610063 3.220126 0 3.220126l-30.591195 32.201258c-1.610063 1.610063-3.220126 1.610063-3.220125 0-1.610063-1.610063-1.610063-3.220126 0-3.220126l30.591195-32.201258c1.610063-1.610063 3.220126-1.610063 3.220125 0zM914.515723 414.591195s-25.761006 69.232704-78.893081 38.641509c-53.132075-30.591195-78.893082-19.320755-90.163523 0-11.27044 19.320755-4.830189 51.522013 32.201258 45.081761 37.031447-6.440252 27.371069-40.251572-8.050314-38.641509 0 0 27.371069-9.660377 35.421384 14.490566s-43.471698 46.691824-67.622642 11.27044c-24.150943-33.811321 35.421384-86.943396 93.383648-69.232704 57.962264 17.710692 82.113208-11.27044 78.893082-30.591195-3.220126-19.320755-51.522013-11.27044-37.031447 14.490566 0 0-24.150943-37.031447 14.490566-38.64151 43.471698-1.610063 37.031447 17.710692 33.811321 28.981133-1.610063 14.490566-6.440252 24.150943-6.440252 24.150943z" fill="#FFA412" p-id="2571"></path><path d="M711.647799 475.773585m-3.220126 0a3.220126 3.220126 0 1 0 6.440252 0 3.220126 3.220126 0 1 0-6.440252 0Z" fill="#FFA412" p-id="2572"></path><path d="M685.886792 478.993711m-6.440251 0a6.440252 6.440252 0 1 0 12.880503 0 6.440252 6.440252 0 1 0-12.880503 0Z" fill="#FFA412" p-id="2573"></path><path d="M663.345912 475.773585v3.220126h3.220126v-1.610063c-1.610063-1.610063-3.220126-1.610063-3.220126-1.610063zM644.025157 472.553459v1.610063h3.220126V470.943396c-1.610063 1.610063-3.220126 1.610063-3.220126 1.610063zM763.169811 470.943396c-1.610063 1.610063-1.610063 4.830189 0 6.440252s4.830189 1.610063 6.440252 0c1.610063-1.610063 1.610063-4.830189 0-6.440252-1.610063 0-4.830189-1.610063-6.440252 0z" fill="#FFA412" p-id="2574"></path><path d="M887.144654 396.880503m-6.440251 0a6.440252 6.440252 0 1 0 12.880503 0 6.440252 6.440252 0 1 0-12.880503 0Z" fill="#FFA412" p-id="2575"></path><path d="M856.553459 404.930818s-8.050314-11.27044 3.220126-30.591195c0 0-22.540881 9.660377-14.490566 20.930817 6.440252 9.660377 11.27044 9.660377 11.27044 9.660378zM842.062893 406.540881l-9.660377-14.490567s-4.830189 12.880503 0 12.880504c3.220126 0 9.660377 1.610063 9.660377 1.610063zM790.540881 321.207547c-1.610063 1.610063-1.610063 3.220126 0 3.220126l30.591194 32.201258c1.610063 1.610063 3.220126 1.610063 3.220126 0 1.610063-1.610063 1.610063-3.220126 0-3.220126l-30.591195-32.201258s-1.610063-1.610063-3.220125 0zM772.830189 335.698113c-1.610063 1.610063-1.610063 3.220126 0 3.220126l30.591195 32.201258c1.610063 1.610063 3.220126 1.610063 3.220125 0 1.610063-1.610063 1.610063-3.220126 0-3.220126l-30.591195-32.201258c-1.610063-1.610063-3.220126-1.610063-3.220125 0zM753.509434 350.188679c-1.610063 1.610063-1.610063 3.220126 0 3.220126l30.591195 32.201258c1.610063 1.610063 3.220126 1.610063 3.220126 0 1.610063-1.610063 1.610063-3.220126 0-3.220126L756.72956 350.188679c-1.610063-1.610063-3.220126-1.610063-3.220126 0zM734.188679 364.679245c-1.610063 1.610063-1.610063 3.220126 0 3.220126l30.591195 32.201258c1.610063 1.610063 3.220126 1.610063 3.220126 0 1.610063-1.610063 1.610063-3.220126 0-3.220126l-30.591195-32.201258c-1.610063-1.610063-3.220126-1.610063-3.220126 0zM418.616352 229.433962l11.27044-22.54088-62.792452-61.18239-20.930818 85.333333 22.540881 12.880503 17.710691-32.201258z" fill="#FFA412" p-id="2576"></path><path d="M400.90566 261.63522l-32.201257-17.710692-12.880504 22.540881L418.616352 326.037736l22.540881-83.723271L418.616352 229.433962zM445.987421 375.949686l6.440252-11.270441-32.201258-32.201258-11.27044 43.471699 12.880503 6.440251 8.050314-16.100629z" fill="#FFA412" p-id="2577"></path><path d="M437.937107 392.050314l-16.100629-9.660377-6.440252 12.880503 32.201258 30.591195L458.867925 382.389937l-12.880504-6.440251zM595.72327 229.433962l-11.27044-22.54088 62.792453-61.18239 20.930818 85.333333-22.540881 12.880503-17.710692-32.201258z" fill="#FFA412" p-id="2578"></path><path d="M613.433962 261.63522l32.201258-17.710692 12.880503 22.540881L595.72327 326.037736l-22.54088-83.723271L595.72327 229.433962zM568.352201 375.949686l-6.440251-11.270441 32.201258-32.201258 11.27044 43.471699-12.880503 6.440251-8.050315-16.100629zM576.402516 392.050314l16.100629-9.660377 6.440251 12.880503-32.201258 30.591195L555.471698 382.389937l12.880503-6.440251z" fill="#FFA412" p-id="2579"></path><path d="M389.63522 564.327044c0 4.830189-3.220126 9.660377-9.660377 9.660377-4.830189 0-9.660377-3.220126-9.660378-9.660377 0-4.830189 3.220126-9.660377 9.660378-9.660377 4.830189 1.610063 9.660377 4.830189 9.660377 9.660377zM418.616352 564.327044c0 4.830189-3.220126 9.660377-9.660377 9.660377-4.830189 0-9.660377-3.220126-9.660378-9.660377 0-4.830189 3.220126-9.660377 9.660378-9.660377 4.830189 1.610063 9.660377 4.830189 9.660377 9.660377zM447.597484 564.327044c0 4.830189-3.220126 9.660377-9.660377 9.660377-4.830189 0-9.660377-3.220126-9.660377-9.660377 0-4.830189 3.220126-9.660377 9.660377-9.660377 4.830189 1.610063 9.660377 4.830189 9.660377 9.660377z" fill="#8C0303" p-id="2580"></path><path d="M408.955975 501.534591m-9.660378 0a9.660377 9.660377 0 1 0 19.320755 0 9.660377 9.660377 0 1 0-19.320755 0Z" fill="#D10D0D" p-id="2581"></path><path d="M433.106918 517.63522m-9.660377 0a9.660377 9.660377 0 1 0 19.320755 0 9.660377 9.660377 0 1 0-19.320755 0Z" fill="#D10D0D" p-id="2582"></path><path d="M455.647799 535.345912m-9.660378 0a9.660377 9.660377 0 1 0 19.320755 0 9.660377 9.660377 0 1 0-19.320755 0Z" fill="#D10D0D" p-id="2583"></path><path d="M463.698113 461.283019m-9.660377 0a9.660377 9.660377 0 1 0 19.320755 0 9.660377 9.660377 0 1 0-19.320755 0Z" fill="#8C0303" p-id="2584"></path><path d="M473.358491 488.654088m-9.660378 0a9.660377 9.660377 0 1 0 19.320755 0 9.660377 9.660377 0 1 0-19.320755 0Z" fill="#8C0303" p-id="2585"></path><path d="M484.628931 525.685535c-4.830189 1.610063-9.660377-1.610063-11.27044-6.440252-1.610063-4.830189 1.610063-9.660377 6.440251-11.27044 4.830189-1.610063 9.660377 1.610063 11.27044 6.440251s-1.610063 9.660377-6.440251 11.270441zM624.704403 564.327044c0 4.830189 3.220126 9.660377 9.660377 9.660377 4.830189 0 9.660377-3.220126 9.660377-9.660377 0-4.830189-3.220126-9.660377-9.660377-9.660377-4.830189 1.610063-9.660377 4.830189-9.660377 9.660377zM595.72327 564.327044c0 4.830189 3.220126 9.660377 9.660378 9.660377 4.830189 0 9.660377-3.220126 9.660377-9.660377 0-4.830189-3.220126-9.660377-9.660377-9.660377-4.830189 1.610063-9.660377 4.830189-9.660378 9.660377zM566.742138 564.327044c0 4.830189 3.220126 9.660377 9.660378 9.660377 4.830189 0 9.660377-3.220126 9.660377-9.660377 0-4.830189-3.220126-9.660377-9.660377-9.660377-4.830189 1.610063-9.660377 4.830189-9.660378 9.660377z" fill="#8C0303" p-id="2586"></path><path d="M605.383648 501.534591m-9.660378 0a9.660377 9.660377 0 1 0 19.320755 0 9.660377 9.660377 0 1 0-19.320755 0Z" fill="#D10D0D" p-id="2587"></path><path d="M581.232704 517.63522m-9.660377 0a9.660377 9.660377 0 1 0 19.320755 0 9.660377 9.660377 0 1 0-19.320755 0Z" fill="#D10D0D" p-id="2588"></path><path d="M558.691824 535.345912m-9.660377 0a9.660377 9.660377 0 1 0 19.320754 0 9.660377 9.660377 0 1 0-19.320754 0Z" fill="#D10D0D" p-id="2589"></path><path d="M550.641509 461.283019m-9.660377 0a9.660377 9.660377 0 1 0 19.320755 0 9.660377 9.660377 0 1 0-19.320755 0Z" fill="#8C0303" p-id="2590"></path><path d="M540.981132 488.654088m-9.660377 0a9.660377 9.660377 0 1 0 19.320754 0 9.660377 9.660377 0 1 0-19.320754 0Z" fill="#8C0303" p-id="2591"></path><path d="M529.710692 525.685535c4.830189 1.610063 9.660377-1.610063 11.27044-6.440252 1.610063-4.830189-1.610063-9.660377-6.440251-11.27044-4.830189-1.610063-9.660377 1.610063-11.270441 6.440251-1.610063 4.830189 1.610063 9.660377 6.440252 11.270441z" fill="#8C0303" p-id="2592"></path><path d="M576.402516 733.383648c-9.660377 32.201258-37.031447 48.301887-69.232705 48.301887s-59.572327-16.100629-69.232704-48.301887h-128.805032c11.27044 96.603774 94.993711 173.886792 196.427673 173.886792s186.767296-77.283019 198.037736-173.886792h-127.194968z" fill="#D10D0D" p-id="2593"></path><path d="M576.402516 733.383648c-9.660377 32.201258-37.031447 48.301887-69.232705 48.301887s-59.572327-16.100629-69.232704-48.301887h-128.805032c11.27044 96.603774 94.993711 156.176101 196.427673 156.1761s186.767296-59.572327 198.037736-156.1761h-127.194968z" fill="#A80404" p-id="2594"></path><path d="M558.691824 786.515723c-1.610063-1.610063-1.610063-4.830189 1.610063-6.440251 1.610063-1.610063 4.830189-1.610063 6.440251 1.610063l59.572327 75.672956c1.610063 1.610063 1.610063 4.830189-1.610062 6.440251-1.610063 1.610063-4.830189 1.610063-6.440252-1.610063l-59.572327-75.672956zM500.72956 791.345912c0-3.220126 1.610063-4.830189 4.830188-4.830189 3.220126 0 4.830189 1.610063 4.830189 4.830189v96.603774c0 3.220126-1.610063 4.830189-4.830189 4.830188-3.220126 0-4.830189-1.610063-4.830188-4.830188v-96.603774zM455.647799 786.515723c1.610063-1.610063 1.610063-4.830189-1.610063-6.440251-1.610063-1.610063-4.830189-1.610063-6.440252 1.610063L388.025157 857.358491c-1.610063 1.610063-1.610063 4.830189 1.610063 6.440251 1.610063 1.610063 4.830189 1.610063 6.440252-1.610063l59.572327-75.672956z" fill="#D10D0D" p-id="2595"></path><path d="M569.962264 725.333333c0-4.830189 3.220126-8.050314 8.050315-8.050314H700.377358c4.830189 0 8.050314 3.220126 8.050315 8.050314s-3.220126 8.050314-8.050315 8.050315h-120.754716c-4.830189 0-9.660377-3.220126-9.660378-8.050315zM305.91195 725.333333c0-4.830189 3.220126-8.050314 8.050314-8.050314h120.754717c4.830189 0 8.050314 3.220126 8.050315 8.050314s-3.220126 8.050314-8.050315 8.050315h-120.754717c-4.830189 0-8.050314-3.220126-8.050314-8.050315z" fill="#5E0404" p-id="2596"></path><path d="M507.169811 715.672956m-17.710692 0a17.710692 17.710692 0 1 0 35.421384 0 17.710692 17.710692 0 1 0-35.421384 0Z" fill="#A80404" p-id="2597"></path><path d="M489.459119 715.672956c0-9.660377 8.050314-17.710692 17.710692-17.710692 9.660377 0 17.710692 8.050314 17.710692 17.710692" fill="#8C0303" p-id="2598"></path><path d="M668.176101 784.90566s-9.660377-27.371069-30.591195-16.100629c-20.930818 11.27044-32.201258 8.050314-35.421384 0-4.830189-8.050314-1.610063-20.930818 12.880503-17.710691 14.490566 1.610063 11.27044 16.100629-3.220126 14.490566 0 0 11.27044 3.220126 14.490566-4.830189 3.220126-9.660377-17.710692-17.710692-27.371069-4.830189-9.660377 12.880503 14.490566 33.811321 37.031447 27.371069 22.540881-6.440252 32.201258 4.830189 32.201258 12.880504-1.610063 8.050314-20.930818 4.830189-14.490566-6.440252 0 0-9.660377 14.490566 6.440251 14.490566 17.710692 0 14.490566-6.440252 12.880503-11.27044-1.610063-4.830189-4.830189-8.050314-4.830188-8.050315z" fill="#FFA412" p-id="2599"></path><path d="M589.283019 760.754717m-1.610063 0a1.610063 1.610063 0 1 0 3.220126 0 1.610063 1.610063 0 1 0-3.220126 0Z" fill="#FFA412" p-id="2600"></path><path d="M578.012579 759.144654m-3.220126 0a3.220126 3.220126 0 1 0 6.440251 0 3.220126 3.220126 0 1 0-6.440251 0Z" fill="#FFA412" p-id="2601"></path><path d="M610.213836 760.754717m-1.610062 0a1.610063 1.610063 0 1 0 3.220125 0 1.610063 1.610063 0 1 0-3.220125 0Z" fill="#FFA412" p-id="2602"></path><path d="M658.515723 791.345912m-3.220126 0a3.220126 3.220126 0 1 0 6.440252 0 3.220126 3.220126 0 1 0-6.440252 0Z" fill="#FFA412" p-id="2603"></path><path d="M645.63522 788.125786s-3.220126 4.830189 1.610063 12.880503c0 0-8.050314-3.220126-6.440252-8.050314 3.220126-4.830189 4.830189-4.830189 4.830189-4.830189zM639.194969 788.125786l-3.220126 6.440252s-1.610063-4.830189 0-4.830189c1.610063-1.610063 3.220126-1.610063 3.220126-1.610063zM619.874214 821.937107s0-1.610063 0 0l11.27044-14.490566h1.610063v1.610063l-12.880503 12.880503c1.610063 0 0 0 0 0zM611.823899 815.496855l11.270441-14.490566h1.610063v1.610063l-12.880504 12.880503c1.610063 1.610063 1.610063 1.610063 0 0zM605.383648 810.666667c-1.610063 0-1.610063-1.610063 0 0l11.27044-14.490566h1.610063v1.610063l-12.880503 12.880503zM597.333333 804.226415l11.270441-14.490566h1.610062v1.610063l-12.880503 12.880503c1.610063 1.610063 0 1.610063 0 0zM346.163522 784.90566s9.660377-27.371069 30.591195-16.100629 32.201258 8.050314 35.421384 0c4.830189-8.050314 1.610063-20.930818-12.880504-17.710691-14.490566 1.610063-11.27044 16.100629 3.220126 14.490566 0 0-11.27044 3.220126-14.490566-4.830189-3.220126-9.660377 17.710692-17.710692 27.371069-4.830189s-14.490566 33.811321-37.031446 27.371069c-22.540881-6.440252-32.201258 4.830189-32.201258 12.880504 1.610063 8.050314 20.930818 4.830189 14.490566-6.440252 0 0 9.660377 14.490566-6.440252 14.490566-17.710692 0-14.490566-6.440252-12.880503-11.27044 1.610063-4.830189 4.830189-8.050314 4.830189-8.050315z" fill="#FFA412" p-id="2604"></path><path d="M425.056604 760.754717m-1.610063 0a1.610063 1.610063 0 1 0 3.220126 0 1.610063 1.610063 0 1 0-3.220126 0Z" fill="#FFA412" p-id="2605"></path><path d="M436.327044 759.144654m-3.220126 0a3.220126 3.220126 0 1 0 6.440252 0 3.220126 3.220126 0 1 0-6.440252 0Z" fill="#FFA412" p-id="2606"></path><path d="M404.125786 760.754717m-1.610063 0a1.610063 1.610063 0 1 0 3.220126 0 1.610063 1.610063 0 1 0-3.220126 0Z" fill="#FFA412" p-id="2607"></path><path d="M355.823899 791.345912m-3.220125 0a3.220126 3.220126 0 1 0 6.440251 0 3.220126 3.220126 0 1 0-6.440251 0Z" fill="#FFA412" p-id="2608"></path><path d="M368.704403 788.125786s3.220126 4.830189-1.610063 12.880503c0 0 8.050314-3.220126 6.440251-8.050314-3.220126-4.830189-4.830189-4.830189-4.830188-4.830189zM375.144654 788.125786l3.220126 6.440252s1.610063-4.830189 0-4.830189c-1.610063-1.610063-3.220126-1.610063-3.220126-1.610063zM394.465409 821.937107s0-1.610063 0 0l-11.27044-14.490566h-1.610063v1.610063l12.880503 12.880503c-1.610063 0 0 0 0 0zM402.515723 815.496855l-11.27044-14.490566h-1.610063v1.610063l12.880503 12.880503c-1.610063 1.610063-1.610063 1.610063 0 0zM408.955975 810.666667c1.610063 0 1.610063-1.610063 0 0l-11.27044-14.490566h-1.610063v1.610063l12.880503 12.880503zM417.006289 804.226415l-11.27044-14.490566h-1.610063v1.610063l12.880503 12.880503c-1.610063 1.610063 0 1.610063 0 0zM542.591195 858.968553l-4.830189 8.050315 24.150944 24.150943L571.572327 857.358491l-9.660377-4.830189-6.440252 12.880503zM549.031447 846.08805l12.880503 6.440252 4.830188-8.050315-24.150943-24.150943-9.660377 33.811321 9.660377 4.830188zM531.320755 801.006289l-3.220126 3.220126 12.880503 12.880503 4.830189-17.710692-4.830189-1.610062-3.220126 6.440251z" fill="#FFA412" p-id="2609"></path><path d="M534.540881 794.566038l6.440251 3.220126 3.220126-4.830189-12.880503-12.880503-4.830189 17.710692 4.830189 3.220125zM471.748428 858.968553l4.830188 8.050315-24.150943 24.150943L442.767296 857.358491l9.660377-4.830189 6.440252 12.880503zM465.308176 846.08805l-12.880503 6.440252-4.830189-8.050315 24.150944-24.150943 9.660377 33.811321-9.660377 4.830188zM483.018868 801.006289l3.220126 3.220126-12.880503 12.880503-4.830189-17.710692 4.830189-1.610062 3.220125 6.440251z" fill="#FFA412" p-id="2610"></path><path d="M479.798742 794.566038l-6.440251 3.220126-3.220126-4.830189 12.880503-12.880503 4.830189 17.710692-4.830189 3.220125z" fill="#FFA412" p-id="2611"></path><path d="M557.081761 725.333333m-3.220126 0a3.220126 3.220126 0 1 0 6.440252 0 3.220126 3.220126 0 1 0-6.440252 0Z" fill="#8C0303" p-id="2612"></path><path d="M545.811321 725.333333m-3.220126 0a3.220126 3.220126 0 1 0 6.440252 0 3.220126 3.220126 0 1 0-6.440252 0Z" fill="#8C0303" p-id="2613"></path><path d="M534.540881 725.333333m-3.220126 0a3.220126 3.220126 0 1 0 6.440251 0 3.220126 3.220126 0 1 0-6.440251 0Z" fill="#8C0303" p-id="2614"></path><path d="M545.811321 751.09434m-3.220126 0a3.220126 3.220126 0 1 0 6.440252 0 3.220126 3.220126 0 1 0-6.440252 0Z" fill="#D10D0D" p-id="2615"></path><path d="M536.150943 743.044025m-3.220125 0a3.220126 3.220126 0 1 0 6.440251 0 3.220126 3.220126 0 1 0-6.440251 0Z" fill="#D10D0D" p-id="2616"></path><path d="M528.100629 736.603774m-3.220126 0a3.220126 3.220126 0 1 0 6.440252 0 3.220126 3.220126 0 1 0-6.440252 0Z" fill="#D10D0D" p-id="2617"></path><path d="M524.880503 765.584906m-3.220126 0a3.220126 3.220126 0 1 0 6.440252 0 3.220126 3.220126 0 1 0-6.440252 0Z" fill="#8C0303" p-id="2618"></path><path d="M520.050314 755.924528m-3.220125 0a3.220126 3.220126 0 1 0 6.440251 0 3.220126 3.220126 0 1 0-6.440251 0Z" fill="#8C0303" p-id="2619"></path><path d="M516.830189 744.654088m-3.220126 0a3.220126 3.220126 0 1 0 6.440251 0 3.220126 3.220126 0 1 0-6.440251 0Z" fill="#8C0303" p-id="2620"></path><path d="M457.257862 725.333333m-3.220126 0a3.220126 3.220126 0 1 0 6.440251 0 3.220126 3.220126 0 1 0-6.440251 0Z" fill="#8C0303" p-id="2621"></path><path d="M468.528302 725.333333m-3.220126 0a3.220126 3.220126 0 1 0 6.440252 0 3.220126 3.220126 0 1 0-6.440252 0Z" fill="#8C0303" p-id="2622"></path><path d="M479.798742 725.333333m-3.220126 0a3.220126 3.220126 0 1 0 6.440252 0 3.220126 3.220126 0 1 0-6.440252 0Z" fill="#8C0303" p-id="2623"></path><path d="M468.528302 751.09434m-3.220126 0a3.220126 3.220126 0 1 0 6.440252 0 3.220126 3.220126 0 1 0-6.440252 0Z" fill="#D10D0D" p-id="2624"></path><path d="M478.188679 743.044025m-3.220126 0a3.220126 3.220126 0 1 0 6.440252 0 3.220126 3.220126 0 1 0-6.440252 0Z" fill="#D10D0D" p-id="2625"></path><path d="M486.238994 736.603774m-3.220126 0a3.220126 3.220126 0 1 0 6.440251 0 3.220126 3.220126 0 1 0-6.440251 0Z" fill="#D10D0D" p-id="2626"></path><path d="M489.459119 765.584906m-3.220125 0a3.220126 3.220126 0 1 0 6.440251 0 3.220126 3.220126 0 1 0-6.440251 0Z" fill="#8C0303" p-id="2627"></path><path d="M494.289308 755.924528m-3.220126 0a3.220126 3.220126 0 1 0 6.440252 0 3.220126 3.220126 0 1 0-6.440252 0Z" fill="#8C0303" p-id="2628"></path><path d="M497.509434 744.654088m-3.220126 0a3.220126 3.220126 0 1 0 6.440252 0 3.220126 3.220126 0 1 0-6.440252 0Z" fill="#8C0303" p-id="2629"></path></svg>